<?xml version="1.0" encoding="utf-8"?>
<!-- Generator: Adobe Illustrator 18.1.1, SVG Export Plug-In . SVG Version: 6.00 Build 0)  -->
<svg version="1.1" id="Layer_1" xmlns="http://www.w3.org/2000/svg" xmlns:xlink="http://www.w3.org/1999/xlink" x="0px" y="0px"
	 viewBox="0 0 185.6 45.4" enable-background="new 0 0 185.6 45.4" xml:space="preserve">
<g>
	<g>
		<polygon fill="#151515" points="65.8,22.3 55.6,22.3 55.6,13.5 54.2,13.5 54.2,32.1 55.6,32.1 55.6,23.6 65.8,23.6 65.8,32.1 
			67.2,32.1 67.2,13.5 65.8,13.5 		"/>
		<rect x="72" y="13.5" fill="#151515" width="1.5" height="18.6"/>
		<path fill="#151515" d="M88.2,24.6c0.4-0.6,0.7-1.2,0.9-2c0.2-0.7,0.3-1.5,0.3-2.2c0-0.9-0.2-1.9-0.5-2.7
			c-0.3-0.9-0.8-1.6-1.4-2.2c-0.6-0.6-1.4-1.1-2.4-1.5c-0.9-0.4-2-0.6-3.3-0.6h-3.7v18.6h1.5v-4.7h2.2c0.3,0,0.6,0,0.8,0
			c0.2,0,0.4,0,0.6-0.1l4,4.8h1.8L84.9,27c0.6-0.2,1.2-0.5,1.7-0.8C87.3,25.7,87.8,25.2,88.2,24.6z M79.7,14.8h2.1
			c1.1,0,2,0.2,2.8,0.4c0.8,0.3,1.4,0.7,1.9,1.2c0.5,0.5,0.9,1.1,1.1,1.8c0.2,0.7,0.4,1.4,0.4,2.2c0,0.8-0.1,1.5-0.3,2.2
			c-0.2,0.7-0.6,1.3-1.1,1.8c-0.5,0.5-1.1,0.9-1.9,1.2c-0.8,0.3-1.7,0.4-2.8,0.4h-2.1V14.8z"/>
		<polygon fill="#151515" points="94.5,23.7 103.1,23.7 103.1,22.3 94.5,22.3 94.5,14.8 104.1,14.8 104.1,13.5 93.1,13.5 93.1,32.1 
			104.5,32.1 104.5,30.8 94.5,30.8 		"/>
		<path fill="#151515" d="M121.8,24.3c-0.4-0.4-0.8-0.9-1.4-1.3c-0.5-0.4-1.2-0.8-2-1.1l-1.6-0.8c-0.6-0.3-1.1-0.5-1.5-0.8
			c-0.4-0.2-0.7-0.5-1-0.8c-0.3-0.3-0.4-0.5-0.6-0.9c-0.1-0.3-0.2-0.7-0.2-1.2c0-0.9,0.3-1.6,0.9-2.1c0.6-0.6,1.4-0.8,2.3-0.8
			c0.9,0,1.7,0.2,2.3,0.5c0.6,0.3,1.1,0.8,1.6,1.5l0.2,0.2l1.2-0.7l-0.2-0.3c-0.6-0.9-1.3-1.6-2.1-2c-0.8-0.4-1.8-0.6-2.9-0.6
			c-0.6,0-1.2,0.1-1.8,0.3c-0.6,0.2-1.1,0.5-1.5,0.9c-0.4,0.4-0.8,0.8-1,1.4c-0.2,0.5-0.4,1.1-0.4,1.8c0,0.6,0.1,1.2,0.3,1.6
			c0.2,0.5,0.5,0.9,0.8,1.3c0.3,0.4,0.8,0.7,1.3,1c0.5,0.3,1.1,0.6,1.7,0.9l1.6,0.8c0.6,0.3,1.2,0.6,1.7,0.9c0.5,0.3,0.8,0.6,1.1,1
			c0.3,0.3,0.5,0.7,0.6,1.1c0.1,0.4,0.2,0.9,0.2,1.4c0,1-0.4,1.8-1.1,2.5c-0.7,0.6-1.8,1-3.2,1c-1.1,0-2.1-0.3-2.9-0.8
			c-0.9-0.5-1.5-1.3-2-2.2l-0.1-0.3l-1.2,0.7l0.1,0.3c0.6,1.1,1.4,2,2.4,2.7c1,0.7,2.3,1,3.8,1c1.8,0,3.2-0.4,4.1-1.3
			c1-0.9,1.5-2.1,1.5-3.5c0-0.6-0.1-1.2-0.3-1.7C122.4,25.2,122.1,24.7,121.8,24.3z"/>
		<path fill="#151515" d="M135.7,15.5c-0.6-0.6-1.4-1.1-2.4-1.5c-0.9-0.4-2-0.6-3.3-0.6h-3.6v18.6h1.5v-4.7h2.1
			c1.3,0,2.4-0.2,3.3-0.5c0.9-0.4,1.7-0.9,2.3-1.5c0.6-0.6,1.1-1.4,1.4-2.2c0.3-0.8,0.5-1.8,0.5-2.7c0-1-0.2-1.9-0.5-2.7
			C136.8,16.9,136.3,16.2,135.7,15.5z M128,14.8h2c1.1,0,2.1,0.2,2.9,0.4c0.8,0.3,1.4,0.7,1.9,1.2c0.5,0.5,0.8,1.1,1.1,1.8
			c0.2,0.7,0.3,1.4,0.3,2.2c0,0.8-0.1,1.5-0.3,2.2c-0.2,0.7-0.6,1.3-1.1,1.8c-0.5,0.5-1.1,0.9-1.9,1.2c-0.8,0.3-1.8,0.4-2.9,0.4h-2
			V14.8z"/>
		<path fill="#151515" d="M145.4,13l-7.6,19.1h1.5l1.4-3.6h9.8l1.4,3.6h1.5L145.9,13H145.4z M150.1,27.2h-8.8l4.4-11.1L150.1,27.2z"
			/>
		<path fill="#151515" d="M170,27.8c-0.7,1-1.7,1.7-2.8,2.3c-1.1,0.6-2.4,0.9-3.7,0.9c-1.2,0-2.2-0.2-3.2-0.6c-1-0.4-1.8-1-2.5-1.7
			c-0.7-0.7-1.3-1.6-1.7-2.6c-0.4-1-0.6-2.1-0.6-3.3c0-1.2,0.2-2.3,0.6-3.3c0.4-1,1-1.9,1.7-2.6c0.7-0.7,1.5-1.3,2.5-1.7
			c1-0.4,2-0.6,3.1-0.6c1.3,0,2.4,0.3,3.5,0.8c1,0.5,1.9,1.2,2.7,2.1l0.2,0.2l1.1-0.8l-0.2-0.2c-0.9-1.1-1.9-1.9-3.2-2.5
			c-1.2-0.6-2.6-0.9-4.1-0.9c-1.3,0-2.5,0.2-3.7,0.7c-1.1,0.5-2.1,1.1-3,2c-0.8,0.8-1.5,1.9-2,3c-0.5,1.2-0.7,2.5-0.7,3.8
			c0,1.4,0.2,2.7,0.7,3.8c0.5,1.2,1.2,2.2,2,3s1.9,1.5,3,2c1.2,0.5,2.4,0.7,3.8,0.7c1.6,0,3-0.3,4.3-1c1.3-0.7,2.4-1.6,3.3-2.7
			l0.2-0.2l-1.1-0.8L170,27.8z"/>
		<polygon fill="#151515" points="175.7,30.8 175.7,23.7 184.3,23.7 184.3,22.3 175.7,22.3 175.7,14.8 185.2,14.8 185.2,13.5 
			174.2,13.5 174.2,32.1 185.6,32.1 185.6,30.8 		"/>
	</g>
	<g>
		<path fill="#4F8130" d="M22.7,0C10.2,0,0,10.2,0,22.7c0,12.5,10.2,22.7,22.7,22.7c12.5,0,22.7-10.2,22.7-22.7
			C45.4,10.2,35.2,0,22.7,0z"/>
		<path fill="#FFFFFF" d="M30.6,31.5h-2.2c-0.5,0-0.8-0.4-0.8-0.8c0-0.5,0.4-0.8,0.8-0.8h2.2l0-10.4l-7.9-5.6l-7.9,5.6l0,10.4h7.7
			c0.5,0,0.8,0.4,0.8,0.8c0,0.5-0.4,0.8-0.8,0.8h-7.7c-0.9,0-1.7-0.7-1.7-1.7V19.5c0-0.5,0.3-1,0.7-1.3l7.9-5.6
			c0.6-0.4,1.3-0.4,1.9,0l7.9,5.6c0.4,0.3,0.7,0.8,0.7,1.3v10.4C32.2,30.8,31.5,31.5,30.6,31.5z"/>
	</g>
</g>
<g>
</g>
<g>
</g>
<g>
</g>
<g>
</g>
<g>
</g>
<g>
</g>
</svg>
