<?xml version="1.0" encoding="utf-8"?>
<!-- Generator: Adobe Illustrator 18.1.1, SVG Export Plug-In . SVG Version: 6.00 Build 0)  -->
<svg version="1.1" id="Layer_1" xmlns="http://www.w3.org/2000/svg" xmlns:xlink="http://www.w3.org/1999/xlink" x="0px" y="0px"
	 viewBox="0 0 40 40" enable-background="new 0 0 40 40" xml:space="preserve">
<g>
	<defs>
		<path id="SVGID_3_" d="M9,24.8c0-1.2,0.5-2.3,1.4-3.2l10-9.2c1.2-1.1,2.7-1.7,4.4-1.7s3.2,0.6,4.4,1.7c1.2,1.1,1.8,2.5,1.8,4.1
			c0,1.6-0.6,3-1.8,4.1l-7.6,7c-0.3,0.3-0.6,0.3-1,0c-0.3-0.3-0.3-0.6,0-0.9l7.4-6.9c0.9-0.9,1.4-1.9,1.4-3.1c0-1.2-0.5-2.3-1.4-3.2
			c-0.9-0.9-2.1-1.3-3.4-1.3c-1.3,0-2.5,0.4-3.4,1.3l-10,9.1c-0.7,0.6-1,1.4-1,2.2c0,0.9,0.3,1.6,1,2.3c0.7,0.6,1.5,0.9,2.4,0.9
			c0.9,0,1.7-0.3,2.4-0.9l10.1-9.2c0.4-0.4,0.6-0.8,0.6-1.4c0-0.5-0.2-1-0.6-1.4c-0.4-0.4-0.9-0.6-1.5-0.6s-1.1,0.2-1.5,0.6l-7.5,7
			c-0.3,0.3-0.7,0.3-1,0c-0.3-0.3-0.3-0.6,0-0.9l7.5-7c0.7-0.6,1.5-0.9,2.4-0.9s1.8,0.3,2.4,0.9c0.7,0.6,1,1.4,1,2.3
			c0,0.9-0.3,1.6-1,2.3l-10.1,9.2c-0.9,0.9-2.1,1.3-3.4,1.3s-2.5-0.4-3.4-1.3C9.5,27.1,9,26,9,24.8L9,24.8z"/>
	</defs>
	<use xlink:href="#SVGID_3_"  overflow="visible" fill-rule="evenodd" clip-rule="evenodd" fill="#FFFFFF"/>
	<clipPath id="SVGID_2_">
		<use xlink:href="#SVGID_3_"  overflow="visible"/>
	</clipPath>
	<rect x="3.2" y="4.9" clip-path="url(#SVGID_2_)" fill="#FFFFFF" width="33.6" height="30.1"/>
</g>
</svg>
