<?xml version="1.0" encoding="utf-8"?>
<!-- Generator: Adobe Illustrator 18.1.1, SVG Export Plug-In . SVG Version: 6.00 Build 0)  -->
<svg version="1.1" id="Layer_1" xmlns="http://www.w3.org/2000/svg" xmlns:xlink="http://www.w3.org/1999/xlink" x="0px" y="0px"
	 viewBox="0 0 40 40" enable-background="new 0 0 40 40" xml:space="preserve">
<g>
	<g>
		<g>
			<g>
				<path fill="#4E812F" d="M25.5,18.7h-11c-0.2,0-0.4-0.2-0.4-0.4c0-0.2,0.2-0.4,0.4-0.4h11c0.2,0,0.4,0.2,0.4,0.4
					C25.9,18.5,25.7,18.7,25.5,18.7z"/>
			</g>
		</g>
	</g>
	<g>
		<g>
			<g>
				<path fill="#4E812F" d="M26.9,32.4c-0.1,0-0.2,0-0.3-0.1l-5.4-5.4H9c-0.2,0-0.4-0.2-0.4-0.4V10c0-0.2,0.2-0.4,0.4-0.4h22
					c0.2,0,0.4,0.2,0.4,0.4v16.5c0,0.2-0.2,0.4-0.4,0.4h-3.7V32c0,0.2-0.1,0.3-0.3,0.4C27,32.4,26.9,32.4,26.9,32.4z M9.4,26.1h12
					c0.1,0,0.2,0,0.3,0.1l4.8,4.8v-4.5c0-0.2,0.2-0.4,0.4-0.4h3.7V10.4H9.4V26.1z"/>
			</g>
		</g>
	</g>
	<g>
		<g>
			<g>
				<path fill="#4E812F" d="M25.5,21.4h-11c-0.2,0-0.4-0.2-0.4-0.4c0-0.2,0.2-0.4,0.4-0.4h11c0.2,0,0.4,0.2,0.4,0.4
					C25.9,21.2,25.7,21.4,25.5,21.4z"/>
			</g>
		</g>
	</g>
	<g>
		<g>
			<g>
				<path fill="#4E812F" d="M25.5,15.9h-11c-0.2,0-0.4-0.2-0.4-0.4c0-0.2,0.2-0.4,0.4-0.4h11c0.2,0,0.4,0.2,0.4,0.4
					C25.9,15.7,25.7,15.9,25.5,15.9z"/>
			</g>
		</g>
	</g>
</g>
</svg>
