<?xml version="1.0" encoding="utf-8"?>
<!-- Generator: Adobe Illustrator 18.1.1, SVG Export Plug-In . SVG Version: 6.00 Build 0)  -->
<svg version="1.1" id="Layer_1" xmlns="http://www.w3.org/2000/svg" xmlns:xlink="http://www.w3.org/1999/xlink" x="0px" y="0px"
	 viewBox="0 0 40 40" enable-background="new 0 0 40 40" xml:space="preserve">
<g>
	<path fill="#4E812F" d="M30.2,15.7c1.6-1.6,1.6-4.3,0-6c-1.6-1.6-4.3-1.6-6,0c-0.1,0.1-0.1,0.3-0.1,0.4c-1.3-0.5-2.7-0.8-4.1-0.8
		c-1.5,0-2.9,0.3-4.1,0.8c0.1-0.2,0.1-0.3-0.1-0.4c-1.6-1.6-4.3-1.6-6,0c-1.6,1.6-1.6,4.3,0,6c0.1,0.1,0.2,0.1,0.3,0.1
		c0.1,0,0.1,0,0.2-0.1c-0.5,1.3-0.8,2.7-0.8,4.1c0,3.4,1.6,6.5,4.2,8.4c-0.3,0.1-0.6,0.3-0.8,0.7c-0.2,0.4-0.3,0.8-0.2,1.3
		c0.1,0.4,0.4,0.8,0.8,1c0.3,0.1,0.5,0.2,0.8,0.2c0.6,0,1.2-0.3,1.5-0.8c0.2-0.3,0.2-0.7,0.2-1c1.3,0.5,2.6,0.8,4.1,0.8
		c1.4,0,2.8-0.3,4.1-0.8c0,0.3,0,0.7,0.2,1c0.3,0.5,0.9,0.8,1.5,0.8c0.3,0,0.6-0.1,0.8-0.2c0.4-0.2,0.7-0.6,0.8-1
		c0.1-0.4,0.1-0.9-0.2-1.3c-0.2-0.3-0.5-0.5-0.8-0.7c2.5-1.9,4.2-5,4.2-8.4c0-1.5-0.3-2.9-0.8-4.1c0.1,0,0.1,0.1,0.2,0.1
		C30,15.8,30.1,15.8,30.2,15.7z M10.4,10.3c1.3-1.3,3.5-1.3,4.8,0c0.1,0.1,0.1,0.1,0.2,0.1c-2.1,1-3.9,2.8-4.9,4.9
		c0-0.1,0-0.1-0.1-0.2C9.1,13.8,9.1,11.7,10.4,10.3z M15,30.2c-0.2,0.4-0.8,0.5-1.2,0.3c-0.2-0.1-0.3-0.3-0.4-0.5
		c-0.1-0.2,0-0.5,0.1-0.6c0.2-0.3,0.4-0.4,0.7-0.4c0.1,0,0.3,0,0.4,0.1C15.1,29.3,15.3,29.8,15,30.2z M26.4,29.4
		c0.1,0.2,0.1,0.4,0.1,0.7c-0.1,0.2-0.2,0.4-0.4,0.5c-0.4,0.2-0.9,0.1-1.2-0.3c-0.2-0.4-0.1-0.9,0.3-1.2c0.1-0.1,0.3-0.1,0.4-0.1
		C26,28.9,26.3,29.1,26.4,29.4z M29.7,19.9c0,5.4-4.4,9.7-9.7,9.7c-5.4,0-9.7-4.4-9.7-9.7c0-5.4,4.4-9.7,9.7-9.7
		C25.4,10.2,29.7,14.5,29.7,19.9z M29.6,15.1c-0.1,0.1-0.1,0.1-0.1,0.2c-1-2.1-2.8-3.9-4.9-4.9c0.1,0,0.1,0,0.2-0.1
		c1.3-1.3,3.5-1.3,4.8,0C30.9,11.7,30.9,13.8,29.6,15.1z"/>
	<path fill="#4E812F" d="M20,12c-4.4,0-8,3.6-8,8c0,4.4,3.6,8,8,8c4.4,0,7.9-3.6,7.9-8C28,15.6,24.4,12,20,12z M20,27.1
		c-3.9,0-7.1-3.2-7.1-7.1c0-3.9,3.2-7.1,7.1-7.1c3.9,0,7.1,3.2,7.1,7.1C27.1,23.9,23.9,27.1,20,27.1z"/>
	<path fill="#4E812F" d="M20.4,19.8V15c0-0.2-0.2-0.4-0.4-0.4c-0.2,0-0.4,0.2-0.4,0.4v5c0,0.1,0,0.2,0.1,0.3l2.4,2.4
		c0.1,0.1,0.2,0.1,0.3,0.1c0.1,0,0.2,0,0.3-0.1c0.2-0.2,0.2-0.4,0-0.6L20.4,19.8z"/>
</g>
</svg>
