<?xml version="1.0" encoding="utf-8"?>
<!-- Generator: Adobe Illustrator 18.1.1, SVG Export Plug-In . SVG Version: 6.00 Build 0)  -->
<svg version="1.1" id="Layer_1" xmlns="http://www.w3.org/2000/svg" xmlns:xlink="http://www.w3.org/1999/xlink" x="0px" y="0px"
	 viewBox="0 0 40 40" enable-background="new 0 0 40 40" xml:space="preserve">
<g>
	<path fill="#4E812F" d="M20.2,8.6l-0.2,0c-6.2,0-11.3,5-11.4,11.2c-0.1,6.3,4.9,11.5,11.2,11.6l0.2,0c6.2,0,11.3-5,11.4-11.2
		c0.1-3.1-1.1-5.9-3.2-8.1C26.1,9.9,23.3,8.6,20.2,8.6z M20,30.6l-0.2,0C14,30.5,9.3,25.7,9.4,19.8C9.5,14.1,14.3,9.4,20,9.4l0.2,0
		c2.8,0,5.5,1.2,7.4,3.2c2,2,3,4.7,3,7.5C30.5,25.9,25.7,30.6,20,30.6z"/>
	<g>
		<path fill="#4E812F" d="M18.8,20.9l0.1,1.7c0,0.8-0.2,1.4-0.5,1.9H24l0,1.2h-8v-1.2h0.6c0.2,0,0.4-0.2,0.5-0.6
			c0.1-0.3,0.2-0.8,0.2-1.2v-0.1l-0.1-1.7H16v-1.2h1.2l-0.1-2c0-1,0.3-1.8,0.9-2.5c0.6-0.6,1.5-0.9,2.5-0.9c1,0,1.8,0.3,2.3,0.8
			c0.6,0.5,0.9,1.3,0.9,2.2h-1.5c0-0.6-0.2-1-0.5-1.3c-0.3-0.3-0.8-0.5-1.3-0.5c-0.5,0-1,0.2-1.3,0.6c-0.3,0.4-0.5,0.9-0.5,1.6
			l0.1,2h2.5v1.2H18.8z"/>
	</g>
</g>
</svg>
