<?xml version="1.0" encoding="utf-8"?>
<!-- Generator: Adobe Illustrator 18.1.1, SVG Export Plug-In . SVG Version: 6.00 Build 0)  -->
<svg version="1.1" id="Layer_1" xmlns="http://www.w3.org/2000/svg" xmlns:xlink="http://www.w3.org/1999/xlink" x="0px" y="0px"
	 viewBox="0 0 40 40" enable-background="new 0 0 40 40" xml:space="preserve">
<g>
	<path fill="#FFFFFF" d="M20.6,10c-3.5,0-6.4,2.9-6.4,6.4c0,2.6,2.6,7.5,4.7,11.2c0.8,1.4,1.4,2.3,1.4,2.3l0.3,0.5l0.3-0.5
		c0,0,0.6-0.9,1.4-2.3C24.5,23.9,27,19,27,16.4C27,12.9,24.2,10,20.6,10z M21.6,27.2c-0.4,0.7-0.8,1.3-1,1.7c-0.2-0.4-0.6-1-1-1.7
		c-1.7-2.9-4.6-8.2-4.6-10.8c0-3.1,2.5-5.6,5.6-5.6c3.1,0,5.6,2.5,5.6,5.6C26.2,18.9,23.3,24.2,21.6,27.2z"/>
	<path fill="#FFFFFF" d="M20.6,12.4c-2.2,0-4,1.8-4,4c0,2.2,1.8,4,4,4c2.2,0,4-1.8,4-4C24.6,14.2,22.8,12.4,20.6,12.4z M20.6,19.6
		c-1.8,0-3.2-1.4-3.2-3.2c0-1.8,1.4-3.2,3.2-3.2c1.8,0,3.2,1.4,3.2,3.2C23.8,18.2,22.4,19.6,20.6,19.6z"/>
</g>
</svg>
