<?xml version="1.0" encoding="utf-8"?>
<!-- Generator: Adobe Illustrator 18.1.1, SVG Export Plug-In . SVG Version: 6.00 Build 0)  -->
<svg version="1.1" id="Layer_1" xmlns="http://www.w3.org/2000/svg" xmlns:xlink="http://www.w3.org/1999/xlink" x="0px" y="0px"
	 viewBox="0 0 40 40" enable-background="new 0 0 40 40" xml:space="preserve">
<g>
	<path fill="#4E812F" d="M31,8.6H9C8.8,8.6,8.6,8.8,8.6,9v6.8V31c0,0.2,0.2,0.4,0.4,0.4h22c0.2,0,0.4-0.2,0.4-0.4V15.8V9
		C31.4,8.8,31.2,8.6,31,8.6z M9.4,9.4h21.2v6H9.4V9.4z M9.4,16.2h21.2v8.9h-5.1c-0.2,0-0.4,0.2-0.4,0.4v5.1H9.4V16.2z M30,25.9
		L25.9,30v-4.1H30z M26.5,30.6l4.1-4.1v4.1H26.5z"/>
	<path fill="#4E812F" d="M15.2,11.3c-0.6,0-1.1,0.5-1.1,1.1c0,0.6,0.5,1.1,1.1,1.1c0.6,0,1.1-0.5,1.1-1.1
		C16.3,11.8,15.8,11.3,15.2,11.3z M14.9,12.4c0-0.1,0.1-0.3,0.3-0.3c0.1,0,0.3,0.1,0.3,0.3C15.5,12.7,14.9,12.7,14.9,12.4z"/>
	<path fill="#4E812F" d="M24.8,11.3c-0.6,0-1.1,0.5-1.1,1.1c0,0.6,0.5,1.1,1.1,1.1c0.6,0,1.1-0.5,1.1-1.1
		C25.9,11.8,25.4,11.3,24.8,11.3z M24.5,12.4c0-0.1,0.1-0.3,0.3-0.3c0.1,0,0.3,0.1,0.3,0.3C25.1,12.7,24.5,12.7,24.5,12.4z"/>
</g>
</svg>
