<?xml version="1.0" encoding="utf-8"?>
<!-- Generator: Adobe Illustrator 18.1.1, SVG Export Plug-In . SVG Version: 6.00 Build 0)  -->
<svg version="1.1" id="Layer_1" xmlns="http://www.w3.org/2000/svg" xmlns:xlink="http://www.w3.org/1999/xlink" x="0px" y="0px"
	 viewBox="0 0 40 40" enable-background="new 0 0 40 40" xml:space="preserve">
<g>
	<path fill="#FFFFFF" d="M31.4,13.1c0,0,0-0.1-0.1-0.1c0,0,0-0.1,0-0.1c0,0,0,0,0,0c0,0-0.1-0.1-0.1-0.1c0,0-0.1-0.1-0.1-0.1
		c0,0,0,0,0,0H9c0,0,0,0,0,0c-0.1,0-0.1,0-0.1,0.1c0,0-0.1,0-0.1,0.1c0,0,0,0,0,0c0,0,0,0.1,0,0.1c0,0-0.1,0.1-0.1,0.1v13.8
		c0,0,0,0.1,0.1,0.1c0,0,0,0.1,0,0.1c0,0,0,0,0,0c0.1,0.1,0.2,0.1,0.3,0.1h22c0.1,0,0.2-0.1,0.3-0.1c0,0,0,0,0,0c0,0,0-0.1,0-0.1
		c0,0,0.1-0.1,0.1-0.1V13.1z M9.4,14l7.8,6l-7.8,6V14z M21.9,19.7C21.9,19.7,21.9,19.7,21.9,19.7l-1.8,1.4L20,21.1l-0.1-0.1
		l-1.8-1.4c0,0,0,0,0,0l-7.9-6.1h19.6L21.9,19.7z M17.9,20.5l1.9,1.5c0,0,0.1,0,0.1,0c0,0,0,0,0.1,0c0,0,0,0,0,0c0,0,0,0,0,0
		c0,0,0.1,0,0.1,0c0,0,0.1,0,0.1-0.1l1.9-1.5l7.7,6H10.2L17.9,20.5z M22.8,20l7.8-6V26L22.8,20z"/>
</g>
</svg>
